# xmcd
#
# Track frame offsets:
#	150
#	13730
#	28810
#	46430
#	61330
#	76483
#	90285
#	109132
#	125107
#	141176
#	154979
#	166321
#
# Disc length: 2410 seconds
#
# Revision: 0
# Processed by: cddbd v1.4PL0 Copyright (c) Steve Scherf et al.
# Submitted via: dBpowerAMP V4.0
#
DISCID=9f09680c
DTITLE=Los Cachorros de Juan Villarreal - 12 Corridos de Lujo
DYEAR=1900
DGENRE=Latin
TTITLE0=Ayer salí de la carcel
TTITLE1=El vitache
TTITLE2=9 suertes charras
TTITLE3=Javier Torres
TTITLE4=Comandante Fuentes
TTITLE5=La venganza del plebe
TTITLE6=Los dos catanes
TTITLE7=El bayo y la loba
TTITLE8=El niño
TTITLE9=Emeterio Fierro
TTITLE10=Halcón de pradera
TTITLE11=Zenón Torrez Vélez
EXTD=
EXTT0=
EXTT1=
EXTT2=
EXTT3=
EXTT4=
EXTT5=
EXTT6=
EXTT7=
EXTT8=
EXTT9=
EXTT10=
EXTT11=
PLAYORDER=
